<?xml version="1.0" standalone="no"?>
<!DOCTYPE svg PUBLIC "-//W3C//DTD SVG 20010904//EN"
 "http://www.w3.org/TR/2001/REC-SVG-20010904/DTD/svg10.dtd">
<svg version="1.0" xmlns="http://www.w3.org/2000/svg"
 width="260.000000pt" height="260.000000pt" viewBox="0 0 260.000000 260.000000"
 preserveAspectRatio="xMidYMid meet">
<metadata>
Created by potrace 1.11, written by Peter Selinger 2001-2013
</metadata>
<g transform="translate(0.000000,260.000000) scale(0.100000,-0.100000)"
fill="#000000" stroke="none">
<path d="M701 2163 c-6 -21 -20 -76 -30 -123 -21 -90 -44 -155 -60 -164 -14
-9 -41 34 -41 64 0 58 -28 61 -234 26 -136 -24 -195 -47 -188 -75 17 -77 4
-110 -46 -112 -54 -2 -88 -14 -95 -34 -6 -13 44 -238 168 -765 86 -361 113
-471 117 -476 7 -6 131 -19 283 -29 50 -3 113 -8 140 -10 28 -2 93 -7 145 -10
52 -4 106 -8 120 -10 14 -2 44 -6 66 -10 23 -3 77 -12 120 -19 140 -25 370 -9
504 34 76 25 179 46 268 55 35 4 73 8 85 11 12 2 81 7 152 10 72 4 132 8 134
10 7 6 7 154 0 165 -4 7 -29 8 -65 5 -169 -16 -347 -18 -398 -6 -52 12 -54 12
-146 -29 -122 -54 -210 -73 -334 -74 -177 0 -310 50 -421 162 -90 89 -99 121
-93 335 4 153 6 164 32 216 58 112 211 239 336 278 90 29 251 36 348 16 139
-29 266 -132 298 -242 34 -115 15 -263 -44 -351 -36 -54 -107 -103 -142 -99
-28 3 -29 9 -16 98 11 75 9 66 50 235 20 83 38 158 40 168 4 15 -5 17 -80 17
-53 0 -98 -6 -124 -16 -39 -16 -42 -15 -105 10 -84 34 -146 34 -229 0 -159
-63 -260 -244 -252 -449 6 -173 96 -248 285 -241 48 2 92 10 121 22 50 22 75
20 175 -16 170 -62 381 46 484 247 32 64 51 158 51 258 0 107 -16 177 -66 279
-56 117 -41 138 83 117 83 -14 201 -49 252 -75 17 -9 33 -27 36 -39 5 -20 -46
-331 -76 -465 -5 -23 -12 -58 -15 -77 -3 -19 -11 -63 -18 -97 -7 -35 -12 -65
-10 -67 9 -10 130 -28 144 -21 20 11 74 233 144 595 56 290 56 285 -14 306
-53 16 -64 31 -61 88 3 62 -11 73 -125 100 -127 29 -161 28 -217 -10 -82 -54
-101 -38 -207 175 l-65 131 -45 1 c-25 1 -284 5 -577 9 l-532 7 -10 -39z m729
-149 c184 -4 294 -10 310 -17 14 -7 35 -32 48 -57 48 -95 113 -243 110 -251
-2 -5 -40 9 -85 31 -145 69 -209 84 -373 86 -146 3 -227 -8 -329 -42 -90 -30
-230 -126 -297 -204 -12 -14 -34 -38 -48 -55 -32 -37 -79 -125 -100 -187 -24
-74 -31 -133 -31 -278 1 -147 12 -204 66 -316 16 -34 29 -65 29 -69 0 -8 -261
2 -284 11 -8 3 -17 12 -20 21 -6 14 -140 583 -150 633 -2 14 -18 80 -34 146
l-29 122 26 15 c24 14 43 19 111 32 14 3 52 11 85 18 33 6 78 12 100 12 35 0
40 -3 43 -25 7 -66 8 -67 78 -80 39 -6 71 -7 76 -2 9 9 54 186 88 354 26 126
12 118 200 112 69 -3 253 -7 410 -10z m-19 -763 c52 -42 17 -235 -57 -308 -26
-27 -40 -33 -73 -33 -59 0 -75 28 -69 120 9 123 84 239 154 240 12 0 32 -9 45
-19z"/>
</g>
</svg>
