<?xml version="1.0" encoding="UTF-8" standalone="no"?>
<!-- Created with Inkscape (http://www.inkscape.org/) -->

<svg
   xmlns:dc="http://purl.org/dc/elements/1.1/"
   xmlns:cc="http://creativecommons.org/ns#"
   xmlns:rdf="http://www.w3.org/1999/02/22-rdf-syntax-ns#"
   xmlns:svg="http://www.w3.org/2000/svg"
   xmlns="http://www.w3.org/2000/svg"
   xmlns:sodipodi="http://sodipodi.sourceforge.net/DTD/sodipodi-0.dtd"
   xmlns:inkscape="http://www.inkscape.org/namespaces/inkscape"
   width="89.712425"
   height="61.978031"
   id="svg2"
   version="1.1"
   inkscape:version="0.48.5 r10040"
   sodipodi:docname="Nowy dokument 1">
  <defs
     id="defs4" />
  <sodipodi:namedview
     id="base"
     pagecolor="#ffffff"
     bordercolor="#666666"
     borderopacity="1.0"
     inkscape:pageopacity="0.0"
     inkscape:pageshadow="2"
     inkscape:zoom="1.1191358"
     inkscape:cx="226.41346"
     inkscape:cy="56.772845"
     inkscape:document-units="px"
     inkscape:current-layer="layer1"
     showgrid="false"
     fit-margin-top="0"
     fit-margin-left="0"
     fit-margin-right="0"
     fit-margin-bottom="0"
     inkscape:window-width="1366"
     inkscape:window-height="705"
     inkscape:window-x="-8"
     inkscape:window-y="-8"
     inkscape:window-maximized="1" />
  <metadata
     id="metadata7">
    <rdf:RDF>
      <cc:Work
         rdf:about="">
        <dc:format>image/svg+xml</dc:format>
        <dc:type
           rdf:resource="http://purl.org/dc/dcmitype/StillImage" />
        <dc:title></dc:title>
      </cc:Work>
    </rdf:RDF>
  </metadata>
  <g
     inkscape:label="Layer 1"
     inkscape:groupmode="layer"
     id="layer1"
     transform="translate(-102.15796,-470.01414)">
    <g
       id="g3034"
       transform="translate(-64.335356,100.07722)">
      <path
         style="fill:#f6c4c9"
         d="m 206.26311,431.28921 c -1.925,-0.57419 -9.20013,-1.33834 -16.16696,-1.69813 -6.96683,-0.35979 -12.92873,-0.91606 -13.24867,-1.23617 -0.95922,-0.9597 -10.4991,-42.24694 -9.96232,-43.11548 0.27279,-0.44138 1.56664,-0.80251 2.87523,-0.80251 1.96512,0 2.34648,-0.47034 2.19098,-2.70219 -0.1803,-2.58796 0.097,-2.75004 6.56079,-3.83428 7.24548,-1.21536 7.75095,-1.10429 7.75095,1.70314 0,1.00833 0.43266,1.83333 0.96146,1.83333 0.87273,0 2.3537,-4.36073 3.22633,-9.5 0.37734,-2.22229 -1.14642,-2.12236 26.14127,-1.71429 l 14.32907,0.21429 2.35675,5.03177 c 3.09355,6.60485 4.4806,7.73479 6.856,5.58508 1.58009,-1.42996 2.55788,-1.50379 7.07801,-0.53439 4.78331,1.02584 5.2041,1.33689 4.78368,3.53619 -0.36218,1.8946 0.0457,2.53859 1.90323,3.00479 1.30031,0.32636 2.33807,1.10709 2.30612,1.73497 -0.14697,2.88903 -5.59524,28.62824 -6.18453,29.21753 -0.36534,0.36534 -1.73745,0.3949 -3.04913,0.0657 l -2.38488,-0.59857 2.29034,-11.77152 c 1.25969,-6.47435 2.31193,-12.26724 2.33831,-12.87311 0.0264,-0.60587 -2.90853,-1.90187 -6.52203,-2.88 -7.97285,-2.15815 -9.49563,-1.31524 -6.50023,3.59807 2.90328,4.7622 2.83644,13.74792 -0.14168,19.04676 -3.75827,6.68693 -11.82021,10.14968 -17.12774,7.35666 -2.01853,-1.06223 -3.37303,-1.20886 -4.68425,-0.50712 -2.77599,1.48566 -9.24653,1.18652 -11.71367,-0.54154 -4.57107,-3.20169 -3.62776,-14.25977 1.6682,-19.55573 3.5986,-3.5986 9.20096,-4.71454 12.57378,-2.50459 1.37258,0.89935 2.49559,1.1748 2.49559,0.61212 0,-0.56268 1.83032,-1.02305 4.06739,-1.02305 3.40661,0 3.98228,0.2843 3.5435,1.75 -1.86741,6.23798 -3.78363,15.4106 -3.31688,15.87735 1.24781,1.2478 4.83294,-0.97136 6.37846,-3.94822 2.17561,-4.19048 2.10543,-10.56227 -0.1543,-14.01106 -2.71017,-4.13624 -7.16434,-6.07967 -14.01817,-6.11636 -7.25444,-0.0388 -12.53514,2.41085 -16.94671,7.8615 -2.78541,3.44146 -3.05329,4.41743 -3.05329,11.12407 0,6.98308 0.16776,7.52472 3.34635,10.80419 5.92986,6.11807 17.34099,7.36896 26.00873,2.85109 2.44102,-1.27234 4.31366,-1.72855 4.67766,-1.13958 0.37168,0.60138 3.68147,0.72576 8.53714,0.32081 l 7.93012,-0.66134 0,3.00029 0,3.0003 -8.9559,0.67608 c -4.92575,0.37185 -10.45759,1.30353 -12.29298,2.0704 -4.58694,1.91655 -14.52127,2.65443 -18.75112,1.39277 z m -16.1078,-11.56373 c -2.68346,-5.26345 -2.58028,-15.84652 0.2124,-21.78771 2.42745,-5.16416 7.49911,-9.96205 13.33002,-12.61044 6.19226,-2.81251 17.86186,-2.58124 23.8959,0.47358 2.56822,1.30019 4.66948,2.25457 4.66948,2.12084 0,-0.13373 -1.15799,-2.77252 -2.57331,-5.86399 l -2.5733,-5.62084 -10.6767,-0.009 c -5.87218,-0.005 -12.93327,-0.27992 -15.69131,-0.61142 l -5.01463,-0.60272 -1.74164,8.28434 c -0.9579,4.55639 -1.91071,8.45343 -2.11737,8.66008 -0.20666,0.20666 -1.59112,0.0707 -3.07659,-0.30212 -1.88226,-0.47242 -2.56755,-1.18759 -2.26105,-2.35964 0.40076,-1.53251 -0.14658,-1.58165 -6.16715,-0.55362 -3.63382,0.62048 -6.5487,1.54792 -6.4775,2.06097 0.0712,0.51305 1.79504,8.02032 3.83075,16.68282 l 3.70131,15.75 5.31144,0 5.31145,0 -1.8922,-3.71144 z m 24.65883,-8.75644 c 1.95395,-4.67646 1.83813,-8.16881 -0.2981,-8.98856 -2.74075,-1.05172 -6.25293,3.72946 -6.25293,8.5122 0,3.56156 0.24751,3.94424 2.55103,3.94424 1.96574,0 2.88346,-0.79564 4,-3.46788 z"
         id="path3048"
         inkscape:connector-curvature="0" />
      <path
         style="fill:#f3a7ad"
         d="m 202.76311,430.37003 c -1.65,-0.4745 -8.23391,-1.1446 -14.63091,-1.48912 L 176.50128,428.2545 173.774,416.59571 c -1.5,-6.41233 -3.75179,-15.93379 -5.00398,-21.15879 l -2.2767,-9.5 2.95215,-0.91395 c 2.40127,-0.7434 2.84763,-1.33041 2.39201,-3.14574 -0.66136,-2.63509 0.0596,-3.00078 7.83034,-3.97167 5.31704,-0.66432 5.75795,-0.56263 6.28409,1.44935 0.31122,1.19008 1.05038,2.00228 1.64258,1.80488 0.98901,-0.32967 1.41973,-1.57336 3.0209,-8.72287 l 0.55989,-2.5 12.79392,0.25823 c 7.03665,0.14203 16.09996,0.522 20.14068,0.84439 l 7.34677,0.58616 2.39062,5.40561 c 2.44434,5.52707 4.63323,6.79767 6.8056,3.95049 0.90384,-1.18461 1.99328,-1.26251 5.86024,-0.41902 3.95872,0.86351 4.75,1.41234 4.75,3.29461 0,1.44388 0.90963,2.67296 2.52193,3.40757 1.93331,0.88087 2.39392,1.67688 1.97348,3.41051 -0.30164,1.2438 -1.62573,7.81317 -2.94242,14.59861 -1.31668,6.78544 -2.56191,12.50509 -2.76715,12.71034 -0.77555,0.77554 -4.78584,-0.83006 -4.78584,-1.91611 0,-0.62444 0.9,-5.85857 2,-11.63139 1.1,-5.77282 2,-11.00946 2,-11.63697 0,-1.35271 -12.25135,-4.86429 -14.26922,-4.08996 -0.94881,0.36409 -2.40729,-1.51545 -4.55398,-5.86872 l -3.15813,-6.40435 -4.75933,-0.005 c -2.61764,-0.002 -9.73809,-0.29146 -15.82322,-0.64214 l -11.06388,-0.63759 -1.83017,8.7211 c -1.67978,8.0044 -2.00325,8.67464 -3.93613,8.15579 -1.15826,-0.31091 -2.47376,-0.57145 -2.92333,-0.57896 -0.44956,-0.008 -0.51229,-0.97493 -0.13939,-2.14982 0.6034,-1.90116 0.39072,-2.06407 -1.9333,-1.48077 -1.43621,0.36046 -4.62943,0.93201 -7.09605,1.27009 -3.92647,0.53819 -4.42361,0.87812 -3.99361,2.73078 3.84952,16.58558 6.66739,28.45548 7.0901,29.86607 0.41505,1.38502 1.64723,1.75 5.90814,1.75 l 5.38372,0 -1.92915,-4.25 c -1.17889,-2.59716 -1.93769,-6.49869 -1.95111,-10.03212 -0.0396,-10.42201 4.61541,-17.88145 14.1238,-22.63285 10.03689,-5.0155 22.35515,-4.09617 29.53053,2.2039 4.41124,3.87312 6.32371,8.17095 6.32371,14.21107 0,6.06246 -1.91478,10.33998 -6.38584,14.26562 -3.05004,2.67797 -4.50351,3.23438 -8.44896,3.23438 -2.62086,0 -5.31643,-0.55123 -5.99016,-1.22496 -0.96661,-0.96661 -1.63864,-0.96661 -3.18643,0 -3.1247,1.95141 -9.68636,1.52721 -11.98861,-0.77504 -1.55296,-1.55296 -2,-3.33333 -2,-7.9652 0,-5.22377 0.37909,-6.39697 3.04998,-9.43895 4.097,-4.66622 8.92527,-6.25355 12.93592,-4.25277 1.6993,0.84772 3.24213,1.09698 3.56421,0.57583 0.31236,-0.5054 2.06912,-0.91891 3.90391,-0.91891 l 3.33599,0 -2.2775,8.95084 c -1.25262,4.92296 -2.07932,9.14902 -1.8371,9.39124 0.24222,0.24222 1.32261,0.20969 2.40087,-0.0723 2.77093,-0.72462 5.75212,-5.2993 6.43529,-9.87508 2.06009,-13.79808 -18.17611,-20.65225 -30.08999,-10.19173 -4.75779,4.1774 -6.6904,8.25794 -6.77789,14.31094 -0.0954,6.59967 2.56678,11.13198 8.36928,14.24855 3.85698,2.07162 5.49132,2.34968 11.63926,1.98023 4.80539,-0.28876 8.29844,-1.10607 10.64543,-2.49082 2.3705,-1.39863 3.82045,-1.73378 4.51143,-1.0428 0.58471,0.58471 4.24815,0.85513 8.60457,0.63514 l 7.58634,-0.3831 0,2.76944 0,2.76943 -7.96298,0 c -5.60497,0 -9.46551,0.59224 -13.03702,2 -5.39136,2.12508 -16.72117,2.59494 -22.5,0.93311 z m 13.17401,-21.7918 c 1.00304,-3.46442 0.95303,-4.37141 -0.31071,-5.63515 -2.28865,-2.28865 -4.23223,-1.65079 -6.07526,1.99384 -2.09425,4.1414 -2.33205,7.31313 -0.67271,8.97247 1.4112,1.4112 1.88748,1.43762 3.74018,0.20748 1.16767,-0.77531 2.661,-3.2677 3.3185,-5.53864 z"
         id="path3046"
         inkscape:connector-curvature="0" />
      <path
         style="fill:#ef868f"
         d="m 202.76311,430.37003 c -1.65,-0.4745 -8.21355,-1.14333 -14.58567,-1.4863 l -11.58568,-0.62357 -4.96777,-21.16162 -4.96777,-21.16162 3.23293,-1.00032 c 2.74194,-0.8484 3.07784,-1.27743 2.21178,-2.825 -1.33405,-2.38381 -1.16445,-2.49734 5.5984,-3.74752 6.6561,-1.23045 8.56378,-0.78268 8.56378,2.01007 0,4.13669 2.64445,0.84681 3.79403,-4.72004 l 1.18062,-5.71719 12.76268,0.25823 c 7.01947,0.14203 16.00907,0.51641 19.97689,0.83197 l 7.21422,0.57373 2.48046,5.41804 c 2.53866,5.54518 4.78911,6.82589 6.98086,3.97276 0.91464,-1.19065 1.94709,-1.24905 5.86024,-0.33152 4.00762,0.93968 4.75,1.48201 4.75,3.47002 0,1.55515 0.80143,2.66097 2.35717,3.25246 l 2.35717,0.8962 -2.82415,14.7127 c -1.55328,8.09198 -2.97115,14.85971 -3.15084,15.03939 -0.79496,0.79497 -4.73935,-0.95323 -4.73935,-2.10053 0,-0.70031 0.9,-5.64736 2,-10.99345 2.81798,-13.69559 3.00722,-13.01661 -4.25,-15.24858 -3.567,-1.09704 -6.92245,-1.59065 -7.81646,-1.14986 -1.22172,0.60238 -2.26501,-0.64425 -4.74066,-5.66461 l -3.17421,-6.43695 -4.75933,-0.005 c -2.61764,-0.002 -9.73368,-0.29121 -15.81343,-0.64158 l -11.05408,-0.63703 -1.87068,8.19057 c -1.02888,4.50482 -2.12954,8.34069 -2.44592,8.52417 -0.31637,0.18347 -1.58023,-0.0463 -2.80857,-0.51061 -1.55755,-0.58875 -2.03734,-1.355 -1.58558,-2.53226 0.52805,-1.37607 0.20153,-1.58125 -1.76665,-1.11015 -1.32794,0.31785 -4.55193,0.8863 -7.16443,1.26322 -2.6125,0.37692 -4.73083,0.97171 -4.7074,1.32176 0.0234,0.35 1.75438,7.83641 3.84656,16.63641 l 3.80396,16 5.65344,0.2999 c 3.10939,0.16495 5.65344,0.1476 5.65344,-0.0386 0,-0.18616 -0.9,-2.10376 -2,-4.26135 -4.03314,-7.91077 -2.19347,-19.16506 4.28097,-26.18898 5.37945,-5.83602 10.70254,-8.45973 18.42033,-9.07924 8.01278,-0.64319 14.13605,1.08117 19.1846,5.40255 4.78132,4.09263 6.49553,8.75252 5.89293,16.01921 -0.49966,6.02517 -2.61269,9.58734 -7.76866,13.09646 -4.14659,2.82215 -11.42586,3.11652 -12.87849,0.52081 -0.91718,-1.63891 -1.06745,-1.63891 -2.87843,0 -2.87241,2.5995 -9.38339,2.28402 -12.07894,-0.58526 -2.58277,-2.74924 -2.98331,-10.22044 -0.77669,-14.48757 3.17532,-6.14039 9.87494,-9.20622 14.77555,-6.76148 1.60525,0.80081 3.0524,1.00754 3.37694,0.48241 0.31236,-0.5054 1.89137,-0.91891 3.50891,-0.91891 3.54709,0 3.61913,0.7572 1.02298,10.75225 -2.05564,7.91409 -1.49455,9.40331 2.5455,6.75616 5.12543,-3.35831 6.77967,-11.68833 3.4165,-17.20408 -2.80322,-4.59741 -6.15281,-6.41318 -12.97111,-7.03144 -12.37792,-1.12239 -22.50146,7.5254 -22.50146,19.22132 0,6.75281 2.72704,11.37358 8.41334,14.25579 5.54589,2.81104 14.70076,3.0073 20.51523,0.43979 3.15271,-1.39215 5.95935,-1.68416 13.25,-1.37854 8.99007,0.37685 9.25,0.4552 9.25,2.78825 0,2.34328 -0.20002,2.4005 -8.3908,2.4005 -6.22387,0 -9.51656,0.51083 -12.75,1.97804 -4.6764,2.12197 -16.53936,2.62869 -22.3592,0.95507 z m 13.15416,-21.72324 c 1.40012,-4.83592 -0.0287,-7.86055 -3.23283,-6.8436 -4.04685,1.28443 -6.61185,9.30036 -3.85739,12.05482 1.46032,1.46031 1.93343,1.49261 3.79157,0.25886 1.16767,-0.77531 2.65207,-3.23685 3.29865,-5.47008 z"
         id="path3044"
         inkscape:connector-curvature="0" />
      <path
         style="fill:#eb6a74"
         d="m 203.76311,430.38052 c -1.65,-0.55013 -8.42432,-1.27672 -15.05405,-1.61464 l -12.05406,-0.6144 -4.72171,-20.60728 c -2.59695,-11.334 -4.71013,-20.90903 -4.69595,-21.27783 0.0142,-0.36879 1.35294,-0.96204 2.97505,-1.31831 2.60497,-0.57215 2.84543,-0.92088 2.05982,-2.98722 -0.85456,-2.24766 -0.63067,-2.38451 5.70681,-3.48814 6.81404,-1.18661 8.22852,-0.70805 8.26878,2.79755 0.008,0.73334 0.55714,1.15273 1.21937,0.93198 1.11478,-0.37159 1.49561,-1.44076 3.21119,-9.01531 l 0.62285,-2.75 9.32539,0 c 5.12896,0 14.05832,0.28959 19.84302,0.64353 l 10.51764,0.64352 2.62706,5.35648 c 2.62004,5.34216 5.75233,7.13499 6.96131,3.98444 0.42237,-1.10068 1.53126,-1.17336 5.60699,-0.36749 4.459,0.88166 5.08049,1.3056 5.08049,3.46565 0,1.6201 0.68344,2.63983 2,2.98412 2.55052,0.66698 2.52292,1.49282 -0.58772,17.58877 -2.52684,13.07508 -2.64447,13.37925 -5,12.92896 -2.89954,-0.55428 -2.87208,0.22686 -0.41228,-11.72798 2.96535,-14.41185 3.02847,-14.14016 -3.75,-16.14359 -3.1625,-0.9347 -6.80125,-1.62411 -8.0861,-1.53201 -1.94392,0.13934 -2.771,-0.81655 -4.92665,-5.69388 l -2.59055,-5.86133 -8.07335,-0.6286 c -4.44034,-0.34573 -11.76388,-0.6313 -16.27454,-0.6346 l -8.20118,-0.006 -1.71912,8 c -1.55124,7.21878 -1.94662,8 -4.04881,8 -1.66303,0 -2.3297,-0.57232 -2.3297,-2 0,-2.34665 0.39269,-2.30107 -7.69332,-0.89295 l -6.35714,1.10705 0.60452,3.14295 c 0.33248,1.72862 2.05036,9.21795 3.8175,16.64295 l 3.21298,13.5 5.70773,0.2999 c 3.13925,0.16495 5.70773,0.0366 5.70773,-0.28518 0,-0.3218 -0.70392,-1.6594 -1.56426,-2.97245 -2.22345,-3.39341 -2.9591,-12.60135 -1.44019,-18.02638 1.52856,-5.45948 7.75822,-12.83946 13.16775,-15.5992 4.89003,-2.49471 15.01759,-3.50204 20.43566,-2.03261 9.13881,2.47851 15.40104,10.04794 15.40104,18.61592 0,5.36444 -3.6583,12.4245 -7.89788,15.24193 -3.98127,2.64576 -10.22489,2.99244 -12.52203,0.6953 -1.41703,-1.41703 -1.77085,-1.41703 -3.79394,0 -3.10491,2.17476 -8.02433,1.94986 -11.15129,-0.50981 -2.21593,-1.74305 -2.63486,-2.86391 -2.63486,-7.04966 0,-8.90835 4.98925,-14.87776 12.43486,-14.87776 2.29083,0 4.65435,0.48921 5.25227,1.08713 0.78285,0.78284 1.2752,0.78284 1.75902,0 0.94023,-1.52132 6.55788,-1.38135 6.53671,0.16287 -0.009,0.6875 -0.89215,4.61978 -1.9616,8.73839 -2.18088,8.39884 -1.56651,10.25412 2.51092,7.58248 5.76208,-3.77546 7.00363,-14.19358 2.29979,-19.29804 -9.28269,-10.0733 -29.59639,-5.01561 -33.60597,8.36719 -1.65495,5.52371 -1.51891,8.11829 0.67943,12.95891 3.66198,8.06343 13.12839,11.58515 23.7232,8.82555 3.16623,-0.8247 6.23256,-1.82428 6.81407,-2.22129 0.58152,-0.39702 5.2198,-0.57321 10.3073,-0.39155 9.03728,0.3227 9.25,0.38616 9.25,2.75933 0,2.38263 -0.1633,2.42903 -8.54966,2.42903 -6.05865,0 -9.4821,0.48827 -11.75,1.67585 -3.77675,1.9777 -17.68836,2.77212 -22.20034,1.26775 z m 9.89296,-16.82533 c 2.55484,-2.82306 4.0114,-8.92612 2.55043,-10.68648 -2.94112,-3.54383 -7.22124,-0.29253 -8.58386,6.52055 -0.52261,2.61308 -0.2644,3.64405 1.17659,4.69773 2.4033,1.75733 2.82722,1.71092 4.85684,-0.5318 z"
         id="path3042"
         inkscape:connector-curvature="0" />
      <path
         style="fill:#e84653"
         d="m 204.28356,430.32084 c -1.36375,-0.54411 -8.10912,-1.30309 -14.98971,-1.68661 l -12.51017,-0.69731 -4.71677,-20 c -2.59422,-11 -4.73635,-20.50625 -4.76029,-21.125 -0.0239,-0.61875 1.30011,-1.39373 2.94232,-1.72217 2.68568,-0.53713 2.89275,-0.842 2.05982,-3.03276 -0.89834,-2.36281 -0.73859,-2.46823 5.34608,-3.52783 3.44965,-0.60073 6.52395,-1.09224 6.83177,-1.09224 0.30783,0 0.85006,1.15697 1.20497,2.57104 1.00348,3.99815 2.8808,2.3369 4.40184,-3.89521 l 1.38527,-5.67583 8.64221,0.005 c 4.75321,0.002 13.65876,0.29363 19.7901,0.64695 l 11.14789,0.64239 2.30223,4.91536 c 2.73029,5.82928 4.71175,7.27289 7.06253,5.14547 1.24259,-1.12453 2.81937,-1.33032 6.25063,-0.81577 4.23299,0.63482 4.58883,0.91202 4.58883,3.57464 0,2.21979 0.46193,2.88646 2,2.88646 2.54864,0 2.53448,0.4024 -0.59677,16.95689 -2.53721,13.41387 -2.6519,13.71823 -5,13.26936 -1.32178,-0.25267 -2.40323,-0.6091 -2.40323,-0.79206 0,-0.75409 4.13503,-22.05867 4.56586,-23.52429 0.36033,-1.22582 -1.1464,-2.07526 -6.5771,-3.70792 -3.87448,-1.1648 -7.70009,-1.86625 -8.50136,-1.55877 -1.03696,0.39792 -2.20188,-1.15884 -4.04176,-5.40123 l -2.5849,-5.96028 -7.58125,-0.64085 c -12.82748,-1.08432 -25.00886,-0.79366 -25.52897,0.60915 -0.2549,0.6875 -1.0606,4.2875 -1.79044,8 -1.1813,6.00889 -1.58134,6.75 -3.64354,6.75 -1.64987,0 -2.31654,-0.57557 -2.31654,-2 0,-1.1 -0.65285,-2 -1.45078,-2 -1.69237,0 -11.88835,2.09207 -12.38988,2.54223 -0.18737,0.16817 1.38763,7.76322 3.5,16.8779 l 3.84066,16.57213 6.11399,0.004 6.11399,0.004 -2.44699,-4.75 c -6.49866,-12.61491 1.83142,-29.61044 16.62028,-33.90968 9.35959,-2.7209 21.193,-0.31925 26.31059,5.33987 2.61466,2.89133 4.78814,8.82684 4.78814,13.0758 0,4.67008 -3.57221,11.95161 -7.13576,14.54543 -3.72672,2.71258 -11.01809,3.40187 -13.17451,1.24545 -1.52468,-1.52468 -1.8695,-1.53437 -3.90358,-0.10964 -3.39747,2.37969 -8.45843,1.9814 -11.33161,-0.89178 -4.38279,-4.38279 -2.7351,-14.8198 3.05914,-19.37755 3.04611,-2.39607 9.3201,-2.93412 11.28632,-0.9679 0.93333,0.93333 1.46667,0.93333 2.4,0 1.59094,-1.59094 6.80483,-1.5525 6.78286,0.05 -0.009,0.6875 -0.89215,4.61978 -1.9616,8.73839 -2.70987,10.43605 0.0437,12.36824 5.72874,4.0199 6.70661,-9.84845 -1.12876,-21.00829 -14.75,-21.00829 -17.71935,0 -27.96027,20.9256 -15.56648,31.80748 5.91825,5.1963 18.9761,6.16635 26.00791,1.9321 1.36325,-0.82089 5.20322,-1.13064 11.36862,-0.91707 8.9098,0.30865 9.29672,0.41613 9,2.5 -0.28476,1.9999 -1.04406,2.22593 -9.31005,2.77147 -4.95,0.32669 -11.20902,1.33919 -13.90893,2.25 -5.39142,1.81879 -14.68792,2.08908 -18.57062,0.53994 z m 9.38169,-16.42892 c 2.38806,-2.38805 3.97509,-9.29554 2.53451,-11.03133 -2.8987,-3.49273 -7.31913,-0.23224 -8.54512,6.30283 -0.99145,5.28489 2.61616,8.12296 6.01061,4.7285 z"
         id="path3040"
         inkscape:connector-curvature="0" />
      <path
         style="fill:#e63644"
         d="m 204.76311,430.2056 c -1.65,-0.58268 -8.58133,-1.3315 -15.40296,-1.66405 l -12.40296,-0.60463 -4.8331,-20.5 c -2.65821,-11.275 -4.83938,-20.8375 -4.84705,-21.25 -0.008,-0.4125 1.08451,-0.75 2.42705,-0.75 3.03007,0 3.96406,-1.37466 2.62895,-3.86934 -0.92218,-1.72311 -0.5586,-1.9776 3.70375,-2.59243 2.59948,-0.37497 5.68141,-0.90884 6.84874,-1.18638 1.65842,-0.39431 2.26768,0.0741 2.78688,2.1428 1.03467,4.12247 2.95465,2.42721 4.49028,-3.96473 l 1.39958,-5.82563 13.50853,0.64785 c 7.42969,0.35632 16.31936,0.64786 19.75481,0.64786 l 6.24628,0 2.26256,5.45883 c 2.40848,5.81088 4.35652,7.09387 7.1671,4.72027 1.34263,-1.13388 2.70868,-1.26448 6,-0.57362 3.63941,0.76393 4.30775,1.29599 4.57798,3.64452 0.17407,1.51277 0.93484,2.75 1.69098,2.75 0.75601,0 1.64634,0.43974 1.97851,0.9772 0.33216,0.53746 -0.59103,7.28746 -2.05155,15 -2.53321,13.37705 -2.76553,14.0228 -5.04493,14.0228 -1.31419,0 -2.38943,-0.16312 -2.38943,-0.36248 0,-0.19937 1.125,-5.88625 2.5,-12.63752 1.375,-6.75127 2.5,-12.39432 2.5,-12.54012 0,-0.75978 -14.03069,-4.38533 -15.2139,-3.93129 -0.93804,0.35996 -2.30953,-1.39312 -4.22476,-5.40025 -3.40587,-7.1259 -3.41344,-7.12834 -22.1478,-7.12834 l -13.33645,0 -0.94442,3.75 c -0.51943,2.0625 -1.33938,5.55 -1.8221,7.75 -0.66497,3.03059 -1.41484,4.07744 -3.09413,4.31955 -1.67754,0.24186 -2.21644,-0.18363 -2.21644,-1.75 0,-1.13825 -0.61358,-2.06955 -1.36351,-2.06955 -2.07517,0 -11.9224,1.95257 -12.43565,2.46582 -0.24843,0.24844 1.25757,7.86011 3.34667,16.91482 l 3.79836,16.46313 5.88842,0.68342 c 3.23864,0.37589 6.1041,0.46775 6.3677,0.20415 0.26361,-0.2636 -0.55151,-2.22349 -1.81135,-4.35531 -3.09769,-5.24165 -3.13002,-16.01639 -0.0657,-21.87603 4.71629,-9.01844 13.19611,-13.88185 24.27501,-13.92241 14.33753,-0.0525 22.5,6.81212 22.5,18.92241 0,4.98075 -0.50449,6.90839 -2.66076,10.16674 -4.22362,6.38231 -13.52325,9.50639 -17.23859,5.79106 -1.3896,-1.38961 -1.79438,-1.37697 -4.09079,0.1277 -3.27839,2.14808 -9.3451,1.28869 -11.75986,-1.66587 -3.80956,-4.66116 -1.28526,-15.40351 4.43982,-18.894 3.38687,-2.06491 9.26113,-2.72302 10.23536,-1.14669 0.29877,0.48342 2.57533,0.6499 5.05902,0.36995 2.48369,-0.27995 4.50809,-0.33797 4.49866,-0.12894 -0.009,0.20903 -0.90171,3.75505 -1.98286,7.88005 -2.43084,9.2746 -2.44441,10 -0.18709,10 3.29589,0 7.3669,-5.41561 7.94826,-10.57348 1.05167,-9.3304 -5.45755,-15.44553 -16.39733,-15.40456 -9.66093,0.0362 -16.48708,4.24207 -19.81611,12.20957 -7.046,16.86345 10.05012,29.94116 28.79289,22.02518 3.10234,-1.31027 6.27228,-1.68264 12.47349,-1.46523 7.93168,0.27807 8.29967,0.39307 8,2.5 -0.28992,2.03846 -1.00712,2.25443 -9.31411,2.80474 -4.95,0.32792 -10.8,1.32067 -13,2.20611 -4.52131,1.8197 -13.50831,2.05254 -18,0.46635 z m 8.21121,-15.56904 c 1.98343,-1.26047 4.47957,-8.30338 3.8425,-10.84167 -0.73473,-2.92737 -4.4923,-3.18829 -6.94147,-0.482 -4.69741,5.19058 -2.11257,14.63563 3.09897,11.32367 z"
         id="path3038"
         inkscape:connector-curvature="0" />
      <path
         style="fill:#e10a1b"
         d="m 204.26311,429.8852 c -2.74766,-0.86577 -8.8546,-1.42383 -15.68261,-1.4331 -9.77313,-0.0133 -11.24959,-0.23576 -11.71396,-1.76518 -0.56991,-1.87703 -9.60343,-40.24802 -9.60343,-40.79178 0,-0.17895 1.2375,-0.46777 2.75,-0.6418 2.30799,-0.26556 2.70667,-0.7397 2.48041,-2.94994 -0.24934,-2.43569 0.0887,-2.68411 4.5,-3.30696 2.62328,-0.37039 5.52323,-0.89238 6.44434,-1.15998 1.16849,-0.33947 1.77307,0.20366 2,1.79674 0.17889,1.25581 1.04695,2.42071 1.92902,2.58867 1.22725,0.23368 1.91228,-1.14838 2.91784,-5.88677 l 1.31406,-6.19214 13.49028,0.64698 c 7.41965,0.35584 16.23162,0.65466 19.58216,0.66405 l 6.09189,0.0171 2.34192,5.41122 c 2.58242,5.96693 4.57892,7.38876 7.13144,5.07876 1.99187,-1.80262 2.39058,-1.82846 7.27664,-0.47153 3.03114,0.84179 3.75,1.51166 3.75,3.49442 0,1.46913 0.57796,2.453 1.44098,2.453 0.79254,0 1.70589,0.42862 2.02966,0.95249 0.32377,0.52387 -0.62201,7.27387 -2.10172,15 -2.57151,13.42678 -2.79673,14.04751 -5.09704,14.04751 -1.8238,0 -2.28052,-0.42383 -1.88582,-1.75 0.28646,-0.9625 1.25096,-5.8 2.14333,-10.75 0.89238,-4.95 1.85439,-9.98174 2.13781,-11.18164 0.45875,-1.94223 -0.22551,-2.41044 -6.23551,-4.26674 -3.71294,-1.14681 -7.49457,-1.84905 -8.40363,-1.56053 -1.23933,0.39335 -2.36979,-0.97547 -4.51863,-5.47137 -3.45291,-7.22431 -3.49225,-7.23625 -22.45903,-6.81701 l -13.44961,0.29729 -1.60132,7.49611 c -1.19457,5.592 -2.05092,7.5827 -3.37127,7.83698 -1.14402,0.22031 -1.97197,-0.43165 -2.3412,-1.84358 -0.52956,-2.02508 -0.97355,-2.13418 -6.08589,-1.49543 -6.66431,0.83265 -8.19688,1.36675 -8.21482,2.86291 -0.008,0.62865 1.6399,8.19473 3.66097,16.81351 l 3.67468,15.67049 5.90039,0.68481 c 3.24521,0.37665 6.11606,0.46914 6.37966,0.20554 0.26361,-0.2636 -0.40427,-1.99849 -1.48417,-3.85531 -2.94377,-5.06162 -3.5923,-11.73838 -1.75122,-18.02939 3.24213,-11.07851 13.22778,-18.21753 25.54365,-18.26189 8.32368,-0.03 12.89169,1.55053 17.34105,5.99988 8.67809,8.67809 6.79545,23.30978 -3.64986,28.36626 -5.26473,2.54862 -8.06031,2.59024 -10.4943,0.15625 -1.75569,-1.75569 -2.0119,-1.77381 -3.53571,-0.25 -2.15688,2.15688 -9.93852,2.20434 -12.06926,0.0736 -4.36049,-4.36049 -2.03334,-16.41633 3.86287,-20.01166 3.32987,-2.03046 9.11452,-2.57018 10.11945,-0.94418 0.34453,0.55747 2.56022,0.70658 5.17457,0.34824 4.16735,-0.5712 4.52142,-0.45833 4,1.27509 -1.93626,6.43704 -3.83211,15.56205 -3.33626,16.0579 1.36919,1.36919 5.6703,-0.9089 7.5946,-4.02249 2.64143,-4.27391 2.72928,-11.06091 0.19692,-15.21368 -5.24366,-8.599 -22.89664,-8.74429 -30.81659,-0.25363 -4.97771,5.3364 -6.77571,15.07489 -3.83365,20.76421 4.78065,9.24474 18.13318,12.615 29.21753,7.37467 2.93039,-1.38539 5.73701,-1.73767 12.06839,-1.51477 7.25996,0.25559 8.25,0.51276 8.25,2.14301 0,2.46699 -1.88212,3.06027 -9.83179,3.09919 -3.95133,0.0193 -8.90912,0.82092 -12.16821,1.96736 -6.45746,2.27151 -12.74306,2.41981 -19,0.44828 z m 10.52792,-16.85054 c 0.86571,-1.32125 1.66359,-4.35875 1.77305,-6.75 0.18213,-3.97864 -0.0176,-4.37298 -2.35315,-4.64507 -3.41438,-0.39779 -5.9782,2.60491 -6.67781,7.82093 -0.39899,2.97466 -0.15845,4.43341 0.83474,5.0623 2.43164,1.53972 4.79853,0.99134 6.42317,-1.48816 z"
         id="path3036"
         inkscape:connector-curvature="0" />
    </g>
  </g>
</svg>
